Patient4_TMGait_0pt7_01_left_11_EMG.mot
version=1
nRows=40
nColumns=33
inDegrees=no
endheader
time	1LAddLong	2LGlutMax	3LGlutMed	4LIliopsoas	5LSemiMemb	6LBicFemLong	7LRecFem	8LVastMed	9LVastLat	10LGasMed	11LTibAnt	12lTibPost	13LPeroneusLong	14LSol	15LExtDigLong	16LFlexDigLong	17RAddLong	18RGlutMax	19RGlutMed	20RIliopsoas	21RSemiMemb	22RBicFemLong	23RRecFem	24RVastMed	25RVastLat	26RGasMed	27RTibAnt	28RTibPost	29RPeroneusLong	30RSol	31RExtDigLong	32RFlexDigLong
13.445	0.014343	0.022125	0.29373	0.023346	0.15961	0.12817	-0.15778	0.002899	-0.041504	0.11688	0.009308	-0.076294	-0.1831	-0.1709	-0.009155	0.093231	-0.078278	-0.51636	0.14267	-0.009766	0.081635	-0.89645	-0.39047	0.075989	0.23285	-0.011902	-0.27741	-0.001678	0.013275	-0.17303	-0.001831	-0.010986
13.446	-0.000763	-0.00412	0.2449	0.015869	0.07843	0.076904	-0.1648	-0.004425	-0.050354	0.19104	0.019379	-0.062866	-0.17822	-0.33249	0.008698	-0.00473	-0.057068	-0.5864	0.12955	-0.064392	0.057678	-0.72998	-0.28503	0.121	0.61783	-0.009766	-0.45929	-0.005341	0.14114	-0.14862	-0.002441	-0.010223
13.447	-0.016937	0.034943	0.22293	-0.001678	0.065155	0.013733	-0.13977	0.003815	-0.046844	-0.22949	-0.003357	-0.069275	-0.012207	-0.31982	0.04364	-0.16373	-0.063934	-0.68039	0.30319	-0.066376	0.084229	-0.59204	-0.31052	0.22598	0.75012	-0.000305	-0.37186	-0.001678	0.43488	-0.1091	-0.001678	-0.003052
13.448	0.004425	0.016632	0.29312	-0.009155	0.046844	0.01709	-0.16464	0.000763	-0.034637	-0.31342	0.005951	-0.037079	0.051117	-0.56793	0.01709	-0.12878	-0.10178	-0.87326	0.15808	0.014648	0.13199	-0.48691	-0.62195	0.050049	0.71625	-0.007019	-0.19165	-0.005798	0.003357	-0.005646	-0.007324	-0.000458
13.449	0.082245	0.015869	0.25238	0.009308	0.02594	0.051727	-0.21072	0.010376	-0.026245	0.22263	0.020905	-0.029297	0.11063	-0.11215	0.03891	0.038147	-0.065002	-0.91415	-0.032654	0.012665	0.22675	-0.41214	-0.94711	-0.1416	0.46326	-0.010376	0.023956	-0.012054	0.01709	0.000305	-0.002594	-0.00412
13.45	-0.03067	0.023499	0.2417	0.009918	0.005798	0.061035	-0.21286	0.004578	-0.023804	1.0172	0.002594	-0.027618	0.17929	0.37262	0.083618	-1.0828	-0.018768	-0.79163	0.27557	-0.1062	0.30579	-0.39764	-0.64133	-0.13809	0.15335	-0.00473	-0.034637	-0.011597	0.15076	0.012512	-0.001068	-0.003052
13.451	0.005188	0.028839	0.29923	-0.016022	0.012817	0.096283	-0.21149	0.002899	-0.02243	0.37903	-0.000916	-0.039825	0.21225	0.45227	0.10712	0.65613	0.039825	-0.56305	-0.098114	-0.19638	0.18341	-0.32898	-0.32227	-0.12314	0.003815	-0.006256	-0.092468	-0.01358	0.061951	0.020599	-0.003662	-0.010681
13.452	-0.055084	0.063019	0.36957	-0.00885	0.014496	0.1294	-0.21316	0.008392	-0.033569	-0.5545	0.001831	-0.096436	0.16129	0.48355	0.09613	0.21942	0.058594	-0.34363	-0.024719	-0.1265	0.18662	-0.29266	-0.071869	-0.17044	-0.13138	-0.006561	-0.044556	-0.011444	0.003357	-0.000458	0.001373	-0.012207
13.453	0.027161	0.029755	0.31586	-0.006104	0.002441	0.13687	-0.215	0.014954	-0.052338	-0.41397	0.02121	0.039063	0.043488	1.0472	0.04776	-0.59906	0.059204	-0.25726	0.16205	-0.077515	0.14481	-0.25055	-0.21027	-0.069885	-0.24994	-0.0177	0.008698	-0.007019	-0.001984	-0.043793	0	-0.001984
13.454	-0.015259	0.041046	0.31097	0.010681	-0.005798	0.11292	-0.19943	0.006866	-0.047607	0.077209	0.018158	0.13672	0.066071	1.257	0.002289	0.33234	0.054169	-0.039673	0.1152	0.012665	0.11643	-0.17395	-0.39078	-0.080719	-0.38879	-0.00946	-0.000458	-0.008087	0.02182	-0.05249	-0.004272	-0.006409
13.455	-0.007935	0.1001	0.30411	0.001984	-0.028381	0.15457	-0.22415	0.002136	-0.048828	0.34805	0.01236	0.22125	0.12619	1.6237	-0.030365	0.14114	0.012512	0.18188	0.1442	0.11002	-0.014954	-0.060883	-0.48202	-0.10437	-0.27466	-0.009155	-0.00412	-0.005188	0.010071	-0.002136	-0.000916	-0.012665
13.456	0.005646	0.15121	0.30212	-0.004578	-0.058594	0.17761	-0.23361	0.004272	-0.029297	0.17914	0.014496	-0.023041	0.25635	1.2457	-0.10407	0.13855	0.025024	0.34012	-0.031281	0.18799	-0.10346	-0.014801	-0.39414	0.054779	0.37186	-0.007629	-0.023804	-0.006866	-0.001068	0.024719	-0.000458	-0.009613
13.457	0.003204	0.15137	0.27634	-0.003815	-0.082397	0.1561	-0.22736	0.005188	-0.024109	0.36606	0.003815	-0.12375	0.1384	0.080719	-0.12131	-0.76553	0.056915	0.33829	-0.040283	0.1973	0.018463	0.000458	-0.31708	-0.076752	0.52368	0.004425	0.001678	-0.00351	0.034637	-0.034637	-0.00473	-0.014343
13.458	-0.003967	0.12558	0.25513	0.008545	-0.10712	0.12314	-0.20706	0.00412	-0.025635	0.46982	0.001984	0.090332	0.037384	-0.68848	-0.052948	0.33295	0.079346	0.13702	-0.10635	0.19012	0.083771	0.0354	-0.22736	-0.27634	0.09552	-0.011292	0.015717	-0.003357	0.009003	-0.046387	-0.003357	-0.008545
13.459	-0.011444	0.14038	0.29587	0.006256	-0.072327	0.099945	-0.22308	0.007935	-0.002594	0.70465	0.015411	0.34714	0.084991	-0.73257	0.00473	0.48569	0.10834	-0.004883	-0.19608	0.063019	0.10757	0.10559	-0.016785	-0.37857	-0.25711	-0.00946	0.060577	-0.000763	-0.050507	-0.05188	-0.001221	-0.007935
13.46	-0.002747	0.168	0.29846	0.010681	-0.11307	0.054626	-0.23651	-0.007629	0.018768	0.33371	0.001373	-0.048981	0.074921	0.14236	-0.032654	-0.24796	0.11383	0.001221	-0.16663	-0.10727	0.10086	0.22217	0.14282	-0.26627	-0.271	-0.009155	0.05722	0	-0.010223	0.014801	-0.002747	-0.012512
13.461	0.005646	0.17227	0.27344	0.003967	-0.099182	-0.088043	-0.22186	-0.009613	0.029449	0.1503	-0.001373	0.23727	0.11261	-0.16449	-0.045166	-0.060883	0.085602	-0.007629	-0.21118	-0.13138	0.002136	0.30426	0.11871	-0.33981	-0.14832	-0.008545	0.046997	-0.003204	0.019989	-0.016785	-0.005035	-0.005493
13.462	0.030212	0.15823	0.24185	0.007782	-0.054321	-0.34103	-0.16556	-0.004578	0.017242	0.095978	0.015106	-0.58044	0.09491	-0.65308	-0.065308	-0.35904	0.069275	0.10452	-0.33524	0.00946	-0.077515	0.26733	0.0914	-0.21133	-0.038452	-0.01358	0.049286	-0.002747	0.020294	-0.056152	0.000153	-0.002594
13.463	0.043488	0.20355	0.22659	0.006561	-0.002289	-0.42999	-0.13748	-0.004883	-0.017395	-0.091248	0.014648	-0.17044	0.08728	-1.2972	-0.041046	-0.16632	0.11704	0.10437	-0.3569	0.081635	-0.31082	0.14984	0.070953	-0.17456	-0.060883	-0.012207	0.054779	0.001373	0.014648	-0.036163	-0.002136	-0.011139
13.464	0.053558	0.20844	0.215	0.002899	0.12619	-0.37033	-0.14236	0.001831	-0.035706	-0.034943	0.023956	-0.030518	0.12756	-1.8979	-0.011139	-0.020294	0.11429	0.14282	-0.25803	0.12131	-0.44937	0.17944	0.29648	-0.13489	0.049286	-0.012817	0.070343	0.003052	-0.005798	-0.036163	-0.001221	-0.013428
13.465	0.031738	0.19424	0.19501	0.006866	0.10162	-0.24246	-0.10315	0.009918	-0.058746	-0.022125	0.03006	0.11261	0.014343	-1.3669	-0.011749	-0.35492	0.069122	0.19363	-0.20371	0.009308	-0.63538	0.24155	0.26459	-0.13153	0.19882	-0.017548	0.074463	0.002594	-0.058136	-0.10376	-0.001373	-0.01358
13.466	0.02594	0.18097	0.16357	0.010071	0.085907	0.032043	-0.083771	0.00412	-0.070648	0.28503	0.024567	0.36133	-0.14206	-0.55679	0.015106	0.64743	0.027466	0.15228	-0.31174	-0.049744	-0.1474	0.18845	0.18478	-0.087738	0.1683	-0.011597	0.09491	0.001068	-0.05722	-0.14938	-0.004883	-0.011444
13.467	0.024414	0.19791	0.17654	0.009918	0.038605	0.12192	-0.085602	0.005493	-0.047607	0.40253	0.039825	-0.47287	-0.23102	-0.15366	-0.019226	-0.6987	-0.072021	0.29129	-0.57816	-0.17029	0.44281	0.14435	0.098724	-0.036926	0.1532	0	0.053558	0.005341	0.006256	-0.13062	-0.004883	-0.004272
13.468	0.023346	0.15472	0.13397	0	0.005035	0.020599	-0.079193	-0.003662	-0.03952	0.074158	0.019073	0.034943	-0.15121	0.25864	-0.048828	0.77194	-0.11337	0.43289	-0.041504	-0.18494	0.57342	0.1535	-0.036774	-0.12009	0.61737	0	0.034943	0.003204	0.034027	-0.10635	-0.008545	-0.013275
13.469	0.020294	0.15518	0.11505	0.008545	0.025635	-0.084991	-0.070801	-0.000916	-0.042877	0.17975	0.001373	0.36713	-0.089874	0.64636	-0.075226	-0.25696	-0.11231	0.34607	0.032959	-0.11597	0.38422	0.17578	-0.044861	-0.26032	0.62012	-0.001221	0.15427	0.005035	0.001221	-0.024109	-0.004883	-0.012665
13.47	0.031891	0.13611	0.13886	0.006714	0.009613	-0.029755	-0.077362	-0.004425	-0.030518	0.25909	-0.006866	-0.19699	-0.00412	0.98572	-0.10834	0.006561	-0.031128	0.28656	0.067444	0.036774	0.15686	0.23682	0.09964	-0.13809	0.46051	-0.00061	0.22919	0.003052	-0.030823	0.045166	-0.001068	-0.012817
13.471	0.027008	0.19073	0.14603	0.009155	0.023041	0.042267	-0.12863	-0.004883	-0.015717	0.46448	-0.014954	-0.28137	0.093231	0.80872	-0.12207	-0.3862	-0.040894	0.29358	-0.31952	0.11078	0.14236	0.21149	0.064545	-0.018463	0.18051	-0.000458	0.19989	0.003052	-0.059357	0.054474	-0.003052	-0.016937
13.472	0.014801	0.19073	0.2034	0.006714	0.033569	0.14236	-0.080414	0.003662	-0.021057	0.12299	-0.024414	-0.12497	0.072937	0.42343	-0.16373	0.4599	-0.026703	0.40207	-0.39383	0.18982	0.13641	0.17761	-0.016174	0.24262	0.029755	-0.005951	0.052948	0.005798	-0.22766	0.019684	-0.001831	-0.011292
13.473	0.011749	0.18524	0.20966	0.019226	-0.008545	0.006714	-0.049286	0.003815	-0.029755	-0.49652	-0.019073	0.005341	0.084991	0.14069	-0.24185	0.35004	0.002289	0.4834	0.07782	0.14786	0.19028	0.15747	-0.098419	0.40359	0.021973	-0.012817	-0.014954	0.007019	-0.18875	-0.11017	-0.001526	-0.018616
13.474	0.017395	0.20981	0.27176	0.009918	-0.003815	-0.16632	-0.056915	0.005188	-0.047607	-0.4216	-0.010986	0.076904	0.082855	-0.22949	-0.24567	0.10452	0.055542	0.53375	0.2829	0.012207	0.22934	0.092316	0.072327	0.80887	0.099945	-0.008392	-0.12787	-0.000916	-0.005188	-0.14191	-0.004272	-0.020599
13.475	0.022888	0.18585	0.18326	0.018921	0.004578	-0.17044	-0.054016	0.012207	-0.043335	-0.26367	0.010529	-0.025635	0.070953	-0.6781	-0.22064	0.3981	0.051727	0.58548	0.31082	-0.016174	0.18967	0.14114	0.12085	0.7991	-0.079041	-0.007935	-0.16434	0.002289	0.14908	-0.096893	-0.001068	-0.014343
13.476	0.022125	0.22018	0.16052	0.012512	-0.054016	-0.10391	-0.076141	0.007782	-0.048828	-0.25971	0.022278	-0.070496	-0.03006	-0.66834	-0.22385	-0.20813	0.040131	0.70175	-0.00885	0.004272	0.15396	0.21683	0.043793	0.93094	-0.18066	-0.006714	-0.073547	0.003967	0.04776	-0.13641	-0.002289	-0.019226
13.477	0.028687	0.26169	0.12711	0.021973	0.012817	-0.12466	-0.084991	0.006866	-0.039215	-0.081482	0.016174	-0.000763	-0.050659	-0.23956	-0.1973	-0.5072	0.026855	0.6073	0.1796	-0.006256	0.15442	0.28473	0.13809	0.55801	-0.33325	-0.012817	-0.055847	0.003815	-0.073547	-0.11032	-0.001221	-0.010834
13.478	0.028839	0.30136	0.18448	-0.019226	0.079956	-0.050659	-0.061188	-0.002747	-0.040131	0.21057	0.006866	0.005493	-0.042877	-0.25879	-0.1796	-0.026245	0.009918	0.44525	0.23468	-0.053864	0.077362	0.38773	0.28015	0.045319	-0.24994	-0.018311	-0.17731	0.007172	-0.07431	-0.083923	-0.00412	-0.012665
13.479	0.031281	0.28061	0.26337	-0.013885	0.088654	-0.065918	-0.053101	-0.005951	-0.035858	-0.31662	0.003052	-0.046082	-0.11093	-0.24033	-0.17639	-0.18127	0.023956	0.31174	0.048218	-0.043335	0.062103	0.46417	0.30365	-0.35645	-0.036926	-0.019989	-0.19562	-0.001678	0.048981	-0.043335	-0.002289	-0.013123
13.48	0.045471	0.27206	0.20889	-0.014343	0.04364	-0.003052	-0.035095	-0.005646	-0.03891	-0.76721	0.017395	0.00885	-0.080261	-0.008392	-0.17319	-0.18372	0.054321	0.23071	-0.19226	-0.063782	0.044098	0.47119	0.15595	-0.71899	-0.009613	-0.010071	-0.091858	0.006714	0.19974	-0.03067	-0.002136	-0.021362
13.481	0.026855	0.31693	0.14496	-0.014038	-0.005035	0.088654	-0.053864	-0.012512	-0.045776	-0.62805	0.012665	0.02594	-0.058136	0.30167	-0.16983	0.070038	0.076752	0.078125	-0.3508	-0.031891	-0.033417	0.5806	0.04776	-0.94635	-0.16617	-0.013428	0.018463	0.003815	0.44968	-0.072021	-0.002899	-0.017548
13.482	0.021057	0.31937	0.17654	-0.002441	-0.070038	0.13702	-0.071869	0.002136	-0.031586	-0.47257	0.016327	-0.076904	-0.1059	0.39078	-0.1535	0.22812	0.088043	-0.10956	-0.23041	-0.047455	0.28168	0.62576	0.1712	-0.79147	-0.27908	-0.011292	0.11429	-0.002899	0.25864	-0.044403	-0.001678	-0.012207
13.483	0.010834	0.31189	0.21286	-0.008545	-0.051117	0.15137	-0.093842	-0.001984	-0.012207	-0.37628	0.007019	-0.072784	-0.09552	0.59616	-0.12131	0.091858	0.072021	-0.26901	-0.18616	-0.019531	0.37689	0.80841	0.17487	-0.79376	-0.4512	-0.010681	0.063324	0.000458	0.069122	0.11444	-0.002747	-0.002136
13.484	0.016174	0.31845	0.15625	0.007324	-0.032196	0.14038	-0.086975	0.006256	-0.024261	0.21088	-0.001831	-0.048523	-0.033112	0.71228	-0.11246	-0.034332	-0.005951	-0.1799	-0.16281	-0.041199	0.072937	0.96542	0.071259	-0.42129	-0.32272	-0.007782	0.048676	0.000763	-0.17288	0.24536	-0.000458	-0.015564
